<svg width="103" height="24" viewBox="0 0 103 24" fill="none" xmlns="http://www.w3.org/2000/svg">
<path d="M0.304 23V0.504H3.376L12.496 15.096H10.736L19.824 0.504H22.896V23H18.576V7.96L19.408 8.216L13.072 18.392H10.128L3.792 8.216L4.656 7.96V23H0.304ZM34.3075 23.32C32.7502 23.32 31.3422 22.968 30.0835 22.264C28.8462 21.5387 27.8542 20.568 27.1075 19.352C26.3822 18.1147 26.0195 16.7387 26.0195 15.224C26.0195 13.7093 26.3822 12.3547 27.1075 11.16C27.8328 9.944 28.8248 8.984 30.0835 8.28C31.3422 7.55467 32.7395 7.192 34.2755 7.192C35.8542 7.192 37.2622 7.55467 38.4995 8.28C39.7582 8.984 40.7502 9.944 41.4755 11.16C42.2008 12.3547 42.5635 13.7093 42.5635 15.224C42.5635 16.7387 42.2008 18.1147 41.4755 19.352C40.7502 20.568 39.7582 21.5387 38.4995 22.264C37.2622 22.968 35.8648 23.32 34.3075 23.32ZM34.2755 19.416C35.0648 19.416 35.7582 19.2453 36.3555 18.904C36.9742 18.5413 37.4435 18.0507 37.7635 17.432C38.1048 16.792 38.2755 16.0667 38.2755 15.256C38.2755 14.4453 38.1048 13.7307 37.7635 13.112C37.4222 12.4933 36.9528 12.0133 36.3555 11.672C35.7582 11.3093 35.0648 11.128 34.2755 11.128C33.5075 11.128 32.8248 11.3093 32.2275 11.672C31.6302 12.0133 31.1608 12.4933 30.8195 13.112C30.4782 13.7307 30.3075 14.4453 30.3075 15.256C30.3075 16.0667 30.4782 16.792 30.8195 17.432C31.1608 18.0507 31.6302 18.5413 32.2275 18.904C32.8248 19.2453 33.5075 19.416 34.2755 19.416ZM55.6623 23V14.136C55.6623 13.2187 55.3743 12.472 54.7983 11.896C54.2223 11.32 53.4756 11.032 52.5583 11.032C51.9609 11.032 51.4276 11.16 50.9583 11.416C50.4889 11.672 50.1156 12.0347 49.8383 12.504C49.5823 12.9733 49.4543 13.5173 49.4543 14.136L47.8223 13.304C47.8223 12.088 48.0783 11.032 48.5903 10.136C49.1236 9.21867 49.8489 8.504 50.7663 7.992C51.7049 7.48 52.7609 7.224 53.9343 7.224C55.0649 7.224 56.0783 7.512 56.9743 8.088C57.8703 8.64267 58.5743 9.37867 59.0863 10.296C59.5983 11.192 59.8542 12.1627 59.8542 13.208V23H55.6623ZM45.2623 23V7.544H49.4543V23H45.2623ZM63.231 23V7.544H67.455V23H63.231ZM65.343 5.048C64.6603 5.048 64.095 4.824 63.647 4.376C63.199 3.90667 62.975 3.33067 62.975 2.648C62.975 1.98667 63.199 1.42133 63.647 0.952C64.095 0.482666 64.6603 0.247999 65.343 0.247999C66.047 0.247999 66.6123 0.482666 67.039 0.952C67.487 1.42133 67.711 1.98667 67.711 2.648C67.711 3.33067 67.487 3.90667 67.039 4.376C66.6123 4.824 66.047 5.048 65.343 5.048ZM78.4645 23.32C76.8858 23.32 75.4672 22.968 74.2085 22.264C72.9498 21.56 71.9578 20.6 71.2325 19.384C70.5072 18.168 70.1445 16.8027 70.1445 15.288C70.1445 13.752 70.5072 12.376 71.2325 11.16C71.9578 9.944 72.9498 8.984 74.2085 8.28C75.4885 7.55467 76.9072 7.192 78.4645 7.192C79.6805 7.192 80.8005 7.416 81.8245 7.864C82.8485 8.312 83.7338 8.952 84.4805 9.784L81.7925 12.504C81.3872 12.056 80.8965 11.7147 80.3205 11.48C79.7658 11.2453 79.1472 11.128 78.4645 11.128C77.6965 11.128 77.0032 11.3093 76.3845 11.672C75.7872 12.0133 75.3072 12.4933 74.9445 13.112C74.6032 13.7093 74.4325 14.424 74.4325 15.256C74.4325 16.0667 74.6032 16.792 74.9445 17.432C75.3072 18.0507 75.7872 18.5413 76.3845 18.904C77.0032 19.2453 77.6965 19.416 78.4645 19.416C79.1685 19.416 79.7978 19.2987 80.3525 19.064C80.9285 18.808 81.4192 18.4453 81.8245 17.976L84.5445 20.696C83.7552 21.5493 82.8485 22.2 81.8245 22.648C80.8005 23.096 79.6805 23.32 78.4645 23.32ZM93.8388 23.32C92.2814 23.32 90.8734 22.968 89.6148 22.264C88.3774 21.5387 87.3854 20.568 86.6388 19.352C85.9134 18.1147 85.5508 16.7387 85.5508 15.224C85.5508 13.7093 85.9134 12.3547 86.6388 11.16C87.3641 9.944 88.3561 8.984 89.6148 8.28C90.8734 7.55467 92.2708 7.192 93.8068 7.192C95.3854 7.192 96.7934 7.55467 98.0308 8.28C99.2894 8.984 100.281 9.944 101.007 11.16C101.732 12.3547 102.095 13.7093 102.095 15.224C102.095 16.7387 101.732 18.1147 101.007 19.352C100.281 20.568 99.2894 21.5387 98.0308 22.264C96.7934 22.968 95.3961 23.32 93.8388 23.32ZM93.8068 19.416C94.5961 19.416 95.2894 19.2453 95.8868 18.904C96.5054 18.5413 96.9748 18.0507 97.2948 17.432C97.6361 16.792 97.8068 16.0667 97.8068 15.256C97.8068 14.4453 97.6361 13.7307 97.2948 13.112C96.9534 12.4933 96.4841 12.0133 95.8868 11.672C95.2894 11.3093 94.5961 11.128 93.8068 11.128C93.0388 11.128 92.3561 11.3093 91.7588 11.672C91.1614 12.0133 90.6921 12.4933 90.3508 13.112C90.0094 13.7307 89.8388 14.4453 89.8388 15.256C89.8388 16.0667 90.0094 16.792 90.3508 17.432C90.6921 18.0507 91.1614 18.5413 91.7588 18.904C92.3561 19.2453 93.0388 19.416 93.8068 19.416Z" fill="#F2F2F2"/>
</svg>
